<svg width="232" height="32" viewBox="0 0 232 32" fill="none" xmlns="http://www.w3.org/2000/svg">
<path d="M227 0H31V32H227C229.761 32 232 29.7614 232 27V5C232 2.23858 229.761 0 227 0Z" fill="#0F1418"/>
<path d="M31 0H5C2.23858 0 0 2.23858 0 5V27C0 29.7614 2.23858 32 5 32H31V0Z" fill="#6A1B9A"/>
<path d="M27.376 6.54957L22.9914 5.04957C22.7006 4.94988 22.3757 5.0025 22.1311 5.18988L12.2468 12.7683L7.24646 9.74896C6.98985 9.59296 6.67415 9.57173 6.39908 9.69265L4.55292 10.5003C4.21692 10.6471 4 10.9794 4 11.3459V20.5767C4 20.9431 4.21692 21.2754 4.55292 21.4222L6.39908 22.2299C6.67323 22.3508 6.98892 22.3286 7.24646 22.1736L12.2458 19.1542L22.1302 26.7327C22.2935 26.8582 22.492 26.9228 22.6914 26.9228C22.792 26.9228 22.8926 26.9062 22.9905 26.873L27.3751 25.373C27.7489 25.2456 28 24.8948 28 24.4997V7.4228C28 7.02773 27.7489 6.67696 27.376 6.54957ZM7.69231 17.5914V14.3311L10.3905 15.9613L7.69231 17.5914ZM22.4615 20.3154L16.0351 15.9613L22.4615 11.6071V20.3154Z" fill="white"/>
<path d="M11 16L6.5 18.5981V13.4019L11 16Z" fill="#631B8E"/>
<g filter="url(#filter0_d)">
<path d="M53.2288 11.4971L49.6107 22H46.93L43.3558 11.4971H45.9046L48.0946 18.8066C48.2117 19.2021 48.2825 19.5513 48.307 19.854H48.3509C48.3851 19.5269 48.4608 19.168 48.5779 18.7773L50.7532 11.4971H53.2288ZM55.8771 13.3135C55.4865 13.3135 55.1666 13.1987 54.9176 12.9692C54.6686 12.7349 54.5441 12.4492 54.5441 12.1123C54.5441 11.7656 54.6686 11.4824 54.9176 11.2627C55.1666 11.043 55.4865 10.9331 55.8771 10.9331C56.2726 10.9331 56.5924 11.043 56.8366 11.2627C57.0856 11.4824 57.2101 11.7656 57.2101 12.1123C57.2101 12.4639 57.0856 12.752 56.8366 12.9766C56.5924 13.2012 56.2726 13.3135 55.8771 13.3135ZM57.0197 22H54.7052V14.5H57.0197V22ZM58.6572 21.8022V19.9272C59.038 20.1567 59.4165 20.3276 59.7924 20.4399C60.1733 20.5522 60.5322 20.6084 60.8691 20.6084C61.2793 20.6084 61.6015 20.5522 61.8359 20.4399C62.0752 20.3276 62.1948 20.1567 62.1948 19.9272C62.1948 19.7808 62.1411 19.6587 62.0337 19.561C61.9262 19.4634 61.7871 19.3779 61.6162 19.3047C61.4502 19.2314 61.2671 19.1655 61.0669 19.1069C60.8667 19.0483 60.6738 18.9824 60.4882 18.9092C60.1904 18.7969 59.9267 18.6772 59.6972 18.5503C59.4726 18.4185 59.2822 18.2671 59.1259 18.0962C58.9746 17.9253 58.8574 17.7275 58.7744 17.5029C58.6963 17.2783 58.6572 17.0122 58.6572 16.7046C58.6572 16.2847 58.7475 15.9233 58.9282 15.6206C59.1137 15.3179 59.3579 15.0713 59.6606 14.8809C59.9682 14.6855 60.3173 14.5439 60.708 14.4561C61.1035 14.3633 61.5136 14.3169 61.9384 14.3169C62.2705 14.3169 62.6074 14.3438 62.9492 14.3975C63.291 14.4463 63.6279 14.5195 63.9599 14.6172V16.4043C63.667 16.2334 63.352 16.1064 63.0151 16.0234C62.6831 15.9355 62.3559 15.8916 62.0337 15.8916C61.8823 15.8916 61.7382 15.9062 61.6015 15.9355C61.4697 15.96 61.3525 15.999 61.25 16.0527C61.1474 16.1016 61.0669 16.1675 61.0083 16.2505C60.9497 16.3286 60.9204 16.4189 60.9204 16.5215C60.9204 16.6582 60.9643 16.7754 61.0522 16.873C61.1401 16.9707 61.2548 17.0562 61.3964 17.1294C61.538 17.1978 61.6943 17.2612 61.8652 17.3198C62.041 17.3735 62.2143 17.4297 62.3852 17.4883C62.6928 17.5957 62.9712 17.7129 63.2202 17.8398C63.4692 17.9668 63.6816 18.1157 63.8574 18.2866C64.038 18.4575 64.1748 18.6577 64.2675 18.8872C64.3652 19.1167 64.414 19.3901 64.414 19.7075C64.414 20.1519 64.3164 20.5327 64.1211 20.8501C63.9306 21.1626 63.6743 21.4189 63.352 21.6191C63.0346 21.8145 62.666 21.9561 62.2461 22.0439C61.831 22.1367 61.3989 22.1831 60.9497 22.1831C60.1245 22.1831 59.3603 22.0562 58.6572 21.8022ZM73.0608 22H70.7537V20.8574H70.7171C70.1458 21.7412 69.3816 22.1831 68.4246 22.1831C66.6863 22.1831 65.8172 21.1309 65.8172 19.0264V14.5H68.1243V18.8213C68.1243 19.8809 68.5442 20.4106 69.3841 20.4106C69.7991 20.4106 70.1311 20.2666 70.3802 19.9785C70.6292 19.6855 70.7537 19.29 70.7537 18.792V14.5H73.0608V22ZM81.4366 22H79.2467V20.9233H79.2174C78.7145 21.7632 77.9698 22.1831 76.9835 22.1831C76.256 22.1831 75.6822 21.978 75.2623 21.5679C74.8473 21.1528 74.6397 20.6011 74.6397 19.9126C74.6397 18.4575 75.5016 17.6177 77.2252 17.3931L79.2613 17.1221C79.2613 16.3018 78.817 15.8916 77.9283 15.8916C77.0348 15.8916 76.1852 16.1577 75.3795 16.6899V14.9468C75.7018 14.7808 76.1412 14.6343 76.6979 14.5073C77.2594 14.3804 77.7696 14.3169 78.2286 14.3169C80.3673 14.3169 81.4366 15.3838 81.4366 17.5176V22ZM79.2613 18.9531V18.4478L77.899 18.6235C77.1471 18.7212 76.7711 19.0605 76.7711 19.6416C76.7711 19.9053 76.8614 20.1226 77.0421 20.2935C77.2276 20.4595 77.4767 20.5425 77.7892 20.5425C78.2237 20.5425 78.5777 20.3936 78.8512 20.0957C79.1246 19.793 79.2613 19.4121 79.2613 18.9531ZM85.7621 22H83.4477V10.8965H85.7621V22ZM92.2232 21.5972V19.2534C92.648 19.6099 93.1094 19.8784 93.6075 20.0591C94.1055 20.2349 94.6085 20.3228 95.1163 20.3228C95.4141 20.3228 95.6729 20.2959 95.8926 20.2422C96.1172 20.1885 96.3028 20.1152 96.4493 20.0225C96.6006 19.9248 96.7129 19.8125 96.7862 19.6855C96.8594 19.5537 96.8961 19.4121 96.8961 19.2607C96.8961 19.0557 96.8375 18.8726 96.7203 18.7114C96.6031 18.5503 96.442 18.4014 96.2369 18.2646C96.0367 18.1279 95.7974 17.9961 95.5191 17.8691C95.2408 17.7422 94.9405 17.6128 94.6182 17.481C93.7979 17.1392 93.1851 16.7217 92.7798 16.2285C92.3795 15.7354 92.1793 15.1396 92.1793 14.4414C92.1793 13.8945 92.2891 13.4258 92.5088 13.0352C92.7286 12.6396 93.0264 12.3149 93.4024 12.061C93.7833 11.8071 94.2227 11.6216 94.7208 11.5044C95.2188 11.3823 95.7462 11.3213 96.3028 11.3213C96.8497 11.3213 97.3331 11.3555 97.753 11.4238C98.1778 11.4873 98.5684 11.5874 98.9249 11.7241V13.9141C98.7491 13.792 98.5562 13.6846 98.3462 13.5918C98.1412 13.499 97.9288 13.4233 97.709 13.3647C97.4893 13.3013 97.2696 13.2549 97.0499 13.2256C96.835 13.1963 96.6299 13.1816 96.4346 13.1816C96.1661 13.1816 95.9219 13.2085 95.7022 13.2622C95.4825 13.311 95.2969 13.3818 95.1456 13.4746C94.9942 13.5674 94.877 13.6797 94.794 13.8115C94.711 13.9385 94.6695 14.0825 94.6695 14.2437C94.6695 14.4194 94.7159 14.5781 94.8087 14.7197C94.9014 14.8564 95.0333 14.9883 95.2042 15.1152C95.3751 15.2373 95.5826 15.3594 95.8267 15.4814C96.0709 15.5986 96.3467 15.7207 96.6544 15.8477C97.0743 16.0234 97.4503 16.2114 97.7823 16.4116C98.1192 16.6069 98.4073 16.8291 98.6465 17.0781C98.8858 17.3271 99.0689 17.6128 99.1959 17.9351C99.3228 18.2524 99.3863 18.6235 99.3863 19.0483C99.3863 19.6343 99.274 20.1274 99.0494 20.5278C98.8296 20.9233 98.5294 21.2456 98.1485 21.4946C97.7676 21.7388 97.3233 21.9146 96.8155 22.022C96.3126 22.1294 95.7803 22.1831 95.2188 22.1831C94.6426 22.1831 94.0933 22.1343 93.5709 22.0366C93.0533 21.939 92.6041 21.7925 92.2232 21.5972ZM105.484 21.9121C105.142 22.0928 104.627 22.1831 103.939 22.1831C102.308 22.1831 101.493 21.3359 101.493 19.6416V16.2065H100.277V14.5H101.493V12.8813L103.8 12.2222V14.5H105.484V16.2065H103.8V19.2388C103.8 20.02 104.11 20.4106 104.73 20.4106C104.974 20.4106 105.225 20.3398 105.484 20.1982V21.9121ZM114.102 22H111.795V20.8574H111.758C111.187 21.7412 110.423 22.1831 109.466 22.1831C107.727 22.1831 106.858 21.1309 106.858 19.0264V14.5H109.165V18.8213C109.165 19.8809 109.585 20.4106 110.425 20.4106C110.84 20.4106 111.172 20.2666 111.421 19.9785C111.67 19.6855 111.795 19.29 111.795 18.792V14.5H114.102V22ZM123.576 22H121.262V20.9673H121.232C120.705 21.7778 119.931 22.1831 118.911 22.1831C117.973 22.1831 117.219 21.8535 116.647 21.1943C116.076 20.5303 115.791 19.605 115.791 18.4185C115.791 17.1782 116.105 16.1846 116.735 15.4375C117.365 14.6904 118.19 14.3169 119.211 14.3169C120.178 14.3169 120.852 14.6636 121.232 15.3569H121.262V10.8965H123.576V22ZM121.306 18.3525V17.7886C121.306 17.3003 121.164 16.895 120.881 16.5728C120.598 16.2505 120.229 16.0894 119.775 16.0894C119.262 16.0894 118.862 16.292 118.574 16.6973C118.286 17.0977 118.142 17.6494 118.142 18.3525C118.142 19.0117 118.281 19.5195 118.559 19.876C118.837 20.2324 119.223 20.4106 119.716 20.4106C120.185 20.4106 120.566 20.2227 120.859 19.8467C121.157 19.4707 121.306 18.9727 121.306 18.3525ZM126.876 13.3135C126.486 13.3135 126.166 13.1987 125.917 12.9692C125.668 12.7349 125.543 12.4492 125.543 12.1123C125.543 11.7656 125.668 11.4824 125.917 11.2627C126.166 11.043 126.486 10.9331 126.876 10.9331C127.272 10.9331 127.592 11.043 127.836 11.2627C128.085 11.4824 128.209 11.7656 128.209 12.1123C128.209 12.4639 128.085 12.752 127.836 12.9766C127.592 13.2012 127.272 13.3135 126.876 13.3135ZM128.019 22H125.704V14.5H128.019V22ZM133.721 22.1831C132.471 22.1831 131.487 21.834 130.77 21.1357C130.057 20.4326 129.7 19.4805 129.7 18.2793C129.7 17.0391 130.071 16.0698 130.814 15.3716C131.556 14.6685 132.559 14.3169 133.824 14.3169C135.069 14.3169 136.046 14.6685 136.754 15.3716C137.462 16.0698 137.816 16.9951 137.816 18.1475C137.816 19.3926 137.449 20.3765 136.717 21.0991C135.989 21.8218 134.991 22.1831 133.721 22.1831ZM133.78 16.0894C133.233 16.0894 132.808 16.2773 132.506 16.6533C132.203 17.0293 132.051 17.5615 132.051 18.25C132.051 19.6904 132.632 20.4106 133.795 20.4106C134.903 20.4106 135.457 19.6709 135.457 18.1914C135.457 16.79 134.898 16.0894 133.78 16.0894ZM150.612 22H144.313V11.4971H150.37V13.4233H146.679V15.7598H150.114V17.6787H146.679V20.0811H150.612V22ZM159.757 14.5L157.281 18.1328L159.742 22H157.076L155.992 19.9785C155.904 19.8174 155.799 19.5903 155.677 19.2974H155.648C155.575 19.5024 155.475 19.7222 155.348 19.9565L154.256 22H151.598L154.132 18.2646L151.752 14.5H154.432L155.502 16.6021C155.643 16.8804 155.743 17.1147 155.802 17.3052H155.831C155.909 17.0757 156.014 16.8364 156.146 16.5874L157.237 14.5H159.757ZM165.518 21.9121C165.176 22.0928 164.661 22.1831 163.973 22.1831C162.342 22.1831 161.526 21.3359 161.526 19.6416V16.2065H160.31V14.5H161.526V12.8813L163.833 12.2222V14.5H165.518V16.2065H163.833V19.2388C163.833 20.02 164.143 20.4106 164.764 20.4106C165.008 20.4106 165.259 20.3398 165.518 20.1982V21.9121ZM173.689 18.9092H168.796C168.874 19.998 169.56 20.5425 170.854 20.5425C171.679 20.5425 172.405 20.3472 173.03 19.9565V21.6265C172.336 21.9976 171.435 22.1831 170.327 22.1831C169.116 22.1831 168.176 21.8486 167.507 21.1797C166.838 20.5059 166.504 19.5684 166.504 18.3672C166.504 17.1221 166.865 16.1357 167.588 15.4082C168.31 14.6807 169.199 14.3169 170.254 14.3169C171.347 14.3169 172.192 14.6416 172.788 15.291C173.388 15.9404 173.689 16.8218 173.689 17.9351V18.9092ZM171.543 17.4883C171.543 16.4141 171.108 15.877 170.239 15.877C169.868 15.877 169.546 16.0308 169.272 16.3384C169.004 16.646 168.84 17.0293 168.781 17.4883H171.543ZM182.489 22H180.182V17.8325C180.182 16.6704 179.767 16.0894 178.937 16.0894C178.537 16.0894 178.207 16.2432 177.948 16.5508C177.69 16.8584 177.56 17.249 177.56 17.7227V22H175.246V14.5H177.56V15.6865H177.589C178.141 14.7734 178.944 14.3169 179.999 14.3169C181.659 14.3169 182.489 15.3472 182.489 17.4077V22ZM184.017 21.8022V19.9272C184.398 20.1567 184.776 20.3276 185.152 20.4399C185.533 20.5522 185.892 20.6084 186.229 20.6084C186.639 20.6084 186.961 20.5522 187.196 20.4399C187.435 20.3276 187.555 20.1567 187.555 19.9272C187.555 19.7808 187.501 19.6587 187.393 19.561C187.286 19.4634 187.147 19.3779 186.976 19.3047C186.81 19.2314 186.627 19.1655 186.427 19.1069C186.226 19.0483 186.034 18.9824 185.848 18.9092C185.55 18.7969 185.287 18.6772 185.057 18.5503C184.832 18.4185 184.642 18.2671 184.486 18.0962C184.334 17.9253 184.217 17.7275 184.134 17.5029C184.056 17.2783 184.017 17.0122 184.017 16.7046C184.017 16.2847 184.107 15.9233 184.288 15.6206C184.474 15.3179 184.718 15.0713 185.02 14.8809C185.328 14.6855 185.677 14.5439 186.068 14.4561C186.463 14.3633 186.873 14.3169 187.298 14.3169C187.63 14.3169 187.967 14.3438 188.309 14.3975C188.651 14.4463 188.988 14.5195 189.32 14.6172V16.4043C189.027 16.2334 188.712 16.1064 188.375 16.0234C188.043 15.9355 187.716 15.8916 187.393 15.8916C187.242 15.8916 187.098 15.9062 186.961 15.9355C186.829 15.96 186.712 15.999 186.61 16.0527C186.507 16.1016 186.427 16.1675 186.368 16.2505C186.309 16.3286 186.28 16.4189 186.28 16.5215C186.28 16.6582 186.324 16.7754 186.412 16.873C186.5 16.9707 186.615 17.0562 186.756 17.1294C186.898 17.1978 187.054 17.2612 187.225 17.3198C187.401 17.3735 187.574 17.4297 187.745 17.4883C188.053 17.5957 188.331 17.7129 188.58 17.8398C188.829 17.9668 189.041 18.1157 189.217 18.2866C189.398 18.4575 189.535 18.6577 189.627 18.8872C189.725 19.1167 189.774 19.3901 189.774 19.7075C189.774 20.1519 189.676 20.5327 189.481 20.8501C189.29 21.1626 189.034 21.4189 188.712 21.6191C188.394 21.8145 188.026 21.9561 187.606 22.0439C187.191 22.1367 186.759 22.1831 186.309 22.1831C185.484 22.1831 184.72 22.0562 184.017 21.8022ZM192.466 13.3135C192.075 13.3135 191.756 13.1987 191.507 12.9692C191.258 12.7349 191.133 12.4492 191.133 12.1123C191.133 11.7656 191.258 11.4824 191.507 11.2627C191.756 11.043 192.075 10.9331 192.466 10.9331C192.862 10.9331 193.181 11.043 193.426 11.2627C193.675 11.4824 193.799 11.7656 193.799 12.1123C193.799 12.4639 193.675 12.752 193.426 12.9766C193.181 13.2012 192.862 13.3135 192.466 13.3135ZM193.609 22H191.294V14.5H193.609V22ZM199.311 22.1831C198.061 22.1831 197.077 21.834 196.359 21.1357C195.647 20.4326 195.29 19.4805 195.29 18.2793C195.29 17.0391 195.661 16.0698 196.403 15.3716C197.146 14.6685 198.149 14.3169 199.414 14.3169C200.659 14.3169 201.635 14.6685 202.343 15.3716C203.051 16.0698 203.405 16.9951 203.405 18.1475C203.405 19.3926 203.039 20.3765 202.307 21.0991C201.579 21.8218 200.581 22.1831 199.311 22.1831ZM199.37 16.0894C198.823 16.0894 198.398 16.2773 198.095 16.6533C197.793 17.0293 197.641 17.5615 197.641 18.25C197.641 19.6904 198.222 20.4106 199.384 20.4106C200.493 20.4106 201.047 19.6709 201.047 18.1914C201.047 16.79 200.488 16.0894 199.37 16.0894ZM212.33 22H210.023V17.8325C210.023 16.6704 209.608 16.0894 208.778 16.0894C208.378 16.0894 208.048 16.2432 207.789 16.5508C207.531 16.8584 207.401 17.249 207.401 17.7227V22H205.087V14.5H207.401V15.6865H207.431C207.982 14.7734 208.786 14.3169 209.84 14.3169C211.5 14.3169 212.33 15.3472 212.33 17.4077V22ZM213.858 21.8022V19.9272C214.239 20.1567 214.617 20.3276 214.993 20.4399C215.374 20.5522 215.733 20.6084 216.07 20.6084C216.48 20.6084 216.802 20.5522 217.037 20.4399C217.276 20.3276 217.396 20.1567 217.396 19.9272C217.396 19.7808 217.342 19.6587 217.235 19.561C217.127 19.4634 216.988 19.3779 216.817 19.3047C216.651 19.2314 216.468 19.1655 216.268 19.1069C216.068 19.0483 215.875 18.9824 215.689 18.9092C215.391 18.7969 215.128 18.6772 214.898 18.5503C214.674 18.4185 214.483 18.2671 214.327 18.0962C214.175 17.9253 214.058 17.7275 213.975 17.5029C213.897 17.2783 213.858 17.0122 213.858 16.7046C213.858 16.2847 213.948 15.9233 214.129 15.6206C214.315 15.3179 214.559 15.0713 214.862 14.8809C215.169 14.6855 215.518 14.5439 215.909 14.4561C216.304 14.3633 216.715 14.3169 217.139 14.3169C217.471 14.3169 217.808 14.3438 218.15 14.3975C218.492 14.4463 218.829 14.5195 219.161 14.6172V16.4043C218.868 16.2334 218.553 16.1064 218.216 16.0234C217.884 15.9355 217.557 15.8916 217.235 15.8916C217.083 15.8916 216.939 15.9062 216.802 15.9355C216.671 15.96 216.553 15.999 216.451 16.0527C216.348 16.1016 216.268 16.1675 216.209 16.2505C216.151 16.3286 216.121 16.4189 216.121 16.5215C216.121 16.6582 216.165 16.7754 216.253 16.873C216.341 16.9707 216.456 17.0562 216.597 17.1294C216.739 17.1978 216.895 17.2612 217.066 17.3198C217.242 17.3735 217.415 17.4297 217.586 17.4883C217.894 17.5957 218.172 17.7129 218.421 17.8398C218.67 17.9668 218.883 18.1157 219.058 18.2866C219.239 18.4575 219.376 18.6577 219.468 18.8872C219.566 19.1167 219.615 19.3901 219.615 19.7075C219.615 20.1519 219.517 20.5327 219.322 20.8501C219.132 21.1626 218.875 21.4189 218.553 21.6191C218.236 21.8145 217.867 21.9561 217.447 22.0439C217.032 22.1367 216.6 22.1831 216.151 22.1831C215.325 22.1831 214.561 22.0562 213.858 21.8022Z" fill="white"/>
</g>
<path d="M227 0H5C2.23858 0 0 2.23858 0 5V27C0 29.7614 2.23858 32 5 32H227C229.761 32 232 29.7614 232 27V5C232 2.23858 229.761 0 227 0Z" fill="url(#paint0_linear)"/>
<defs>
<filter id="filter0_d" x="42.3558" y="10.8965" width="178.259" height="13.2866" filterUnits="userSpaceOnUse" color-interpolation-filters="sRGB">
<feFlood flood-opacity="0" result="BackgroundImageFix"/>
<feColorMatrix in="SourceAlpha" type="matrix" values="0 0 0 0 0 0 0 0 0 0 0 0 0 0 0 0 0 0 127 0"/>
<feOffset dy="1"/>
<feGaussianBlur stdDeviation="0.5"/>
<feColorMatrix type="matrix" values="0 0 0 0 0 0 0 0 0 0 0 0 0 0 0 0 0 0 1 0"/>
<feBlend mode="normal" in2="BackgroundImageFix" result="effect1_dropShadow"/>
<feBlend mode="normal" in="SourceGraphic" in2="effect1_dropShadow" result="shape"/>
</filter>
<linearGradient id="paint0_linear" x1="0" y1="0" x2="0" y2="32" gradientUnits="userSpaceOnUse">
<stop stop-color="#BBBBBB" stop-opacity="0.1"/>
<stop offset="1" stop-opacity="0.1"/>
</linearGradient>
</defs>
</svg>
